<svg width="31" height="27" viewBox="0 0 31 27" fill="none" xmlns="http://www.w3.org/2000/svg">
<path d="M30.378 3.94539C30.378 4.85155 29.169 5.66437 27.2664 6.20433C25.7573 6.63228 23.8145 6.89078 21.6936 6.89078C19.5728 6.89078 17.6286 6.63228 16.1194 6.20433C14.2168 5.66437 13.0078 4.85155 13.0078 3.94539C13.0078 2.31832 16.8963 1 21.6936 1C26.491 1 30.378 2.31975 30.378 3.94539Z" stroke="#333333" stroke-miterlimit="10"/>
<path d="M18.0167 10.5097C18.0167 10.7121 17.9549 10.9118 17.8401 11.1042C17.3073 11.9888 15.6058 12.727 13.3083 13.1291C12.1165 13.3387 10.7653 13.4565 9.3323 13.4565C4.53493 13.4565 0.646484 12.1367 0.646484 10.5111C0.646484 8.88546 4.53493 7.56714 9.3323 7.56714C10.6476 7.56714 11.894 7.66623 13.0097 7.84287C13.0685 7.85292 13.1288 7.86153 13.1863 7.87015C15.3904 8.24209 17.0647 8.91992 17.718 9.73992C17.9119 9.98692 18.0167 10.2425 18.0167 10.5111V10.5097Z" stroke="#333333" stroke-miterlimit="10"/>
<path d="M18.0167 11.1328V15.0288C18.0167 15.7742 17.1968 16.4577 15.847 16.9776C15.2152 17.2203 14.4657 17.4285 13.63 17.5894C12.3635 17.8364 10.896 17.9757 9.3323 17.9757C6.73761 17.9757 4.40713 17.5894 2.81614 16.9776C1.46782 16.4592 0.646484 15.7756 0.646484 15.0288V10.5095C0.646484 12.1366 4.53493 13.4549 9.3323 13.4549C10.7653 13.4549 12.1165 13.3372 13.3083 13.1275C15.6058 12.7254 17.3073 11.9872 17.8401 11.1026C17.8989 11.1127 17.9578 11.1213 18.0167 11.1328Z" stroke="#333333" stroke-miterlimit="10"/>
<path d="M18.0172 15.0288V18.9234C18.0172 19.0024 18.0086 19.0785 17.9913 19.1561C17.8277 19.8684 16.9159 20.5103 15.5201 20.99C13.9464 21.5314 11.7552 21.8674 9.33425 21.8674C6.91331 21.8674 4.72211 21.5314 3.14692 20.99C1.60332 20.4586 0.648438 19.7291 0.648438 18.9234V15.0288C0.648438 15.7741 1.46978 16.4577 2.8181 16.9776C4.40908 17.5893 6.73956 17.9756 9.33425 17.9756C10.898 17.9756 12.3655 17.8363 13.6319 17.5893C14.4676 17.4285 15.2157 17.2203 15.849 16.9776C17.1987 16.4591 18.0186 15.7756 18.0186 15.0288H18.0172Z" stroke="#333333" stroke-miterlimit="10"/>
<path d="M18.0167 19.1605V23.0566C18.0167 24.6837 14.1282 26.002 9.3323 26.002C4.53636 26.002 0.646484 24.6837 0.646484 23.0566V18.9236C0.646484 19.7292 1.59993 20.4587 3.14497 20.9901C4.72016 21.5315 6.91136 21.8675 9.3323 21.8675C11.7532 21.8675 13.9444 21.5315 15.5182 20.9901C16.9139 20.509 17.8257 19.8685 17.9894 19.1562C17.998 19.1591 18.0066 19.1591 18.0152 19.162L18.0167 19.1605Z" stroke="#333333" stroke-miterlimit="10"/>
<path d="M30.378 3.94531V8.4632C30.378 9.20852 29.5567 9.89209 28.2083 10.4105C26.6174 11.0223 24.2883 11.4086 21.6936 11.4086C20.3783 11.4086 19.1305 11.3095 18.0148 11.1329V10.5096C18.0148 10.2425 17.91 9.98544 17.7162 9.73843C17.0628 8.91844 15.3886 8.24061 13.1844 7.86867C13.127 7.86005 13.0667 7.85143 13.0078 7.84138V3.94531C13.0078 4.85148 14.2168 5.66429 16.1194 6.20426C17.6286 6.63221 19.5714 6.8907 21.6936 6.8907C23.8159 6.8907 25.7573 6.63221 27.2664 6.20426C29.169 5.66429 30.378 4.85148 30.378 3.94531Z" stroke="#333333" stroke-miterlimit="10"/>
<path d="M30.3827 8.46338V12.358C30.3827 13.1651 29.4278 13.8932 27.8814 14.426C26.3076 14.9674 24.1178 15.3034 21.6983 15.3034C20.383 15.3034 19.1352 15.2043 18.0195 15.0277V11.133C19.1352 11.3097 20.383 11.4088 21.6983 11.4088C24.293 11.4088 26.6206 11.0225 28.2131 10.4107C29.5614 9.89227 30.3827 9.2087 30.3827 8.46338Z" stroke="#333333" stroke-miterlimit="10"/>
<path d="M30.3827 12.358V16.4939C30.3827 18.121 26.4943 19.4379 21.6983 19.4379C20.383 19.4379 19.1352 19.3388 18.0195 19.1622V15.0291C19.1352 15.2058 20.383 15.3049 21.6983 15.3049C24.1178 15.3049 26.3062 14.9688 27.8814 14.4274C29.4278 13.8946 30.3827 13.1665 30.3827 12.3595V12.358Z" stroke="#333333" stroke-miterlimit="10"/>
</svg>
