<svg width="21" height="19" viewBox="0 0 21 19" fill="none" xmlns="http://www.w3.org/2000/svg">
<path fill-rule="evenodd" clip-rule="evenodd" d="M0 2.18198C0 1.78415 0.158035 1.40262 0.43934 1.12132C0.720644 0.840014 1.10218 0.681978 1.5 0.681978H19.5C19.8978 0.681978 20.2794 0.840014 20.5607 1.12132C20.842 1.40262 21 1.78415 21 2.18198C21 2.5798 20.842 2.96133 20.5607 3.24264C20.2794 3.52394 19.8978 3.68198 19.5 3.68198H1.5C1.10218 3.68198 0.720644 3.52394 0.43934 3.24264C0.158035 2.96133 0 2.5798 0 2.18198ZM0 9.68198C0 9.28415 0.158035 8.90262 0.43934 8.62132C0.720644 8.34001 1.10218 8.18198 1.5 8.18198H19.5C19.8978 8.18198 20.2794 8.34001 20.5607 8.62132C20.842 8.90262 21 9.28415 21 9.68198C21 10.0798 20.842 10.4613 20.5607 10.7426C20.2794 11.0239 19.8978 11.182 19.5 11.182H1.5C1.10218 11.182 0.720644 11.0239 0.43934 10.7426C0.158035 10.4613 0 10.0798 0 9.68198ZM9 17.182C9 16.7842 9.15804 16.4026 9.43934 16.1213C9.72064 15.84 10.1022 15.682 10.5 15.682H19.5C19.8978 15.682 20.2794 15.84 20.5607 16.1213C20.842 16.4026 21 16.7842 21 17.182C21 17.5798 20.842 17.9613 20.5607 18.2426C20.2794 18.5239 19.8978 18.682 19.5 18.682H10.5C10.1022 18.682 9.72064 18.5239 9.43934 18.2426C9.15804 17.9613 9 17.5798 9 17.182Z" fill="white"/>
</svg>
