<svg width="21" height="18" viewBox="0 0 21 18" fill="none" xmlns="http://www.w3.org/2000/svg">
<path fill-rule="evenodd" clip-rule="evenodd" d="M0.115234 1.49985C0.115234 1.10202 0.271533 0.720494 0.549746 0.439189C0.827959 0.157885 1.2053 -0.000150681 1.59875 -0.000150681H19.4009C19.7944 -0.000150681 20.1717 0.157885 20.45 0.439189C20.7282 0.720494 20.8845 1.10202 20.8845 1.49985C20.8845 1.89767 20.7282 2.2792 20.45 2.56051C20.1717 2.84181 19.7944 2.99985 19.4009 2.99985H1.59875C1.2053 2.99985 0.827959 2.84181 0.549746 2.56051C0.271533 2.2792 0.115234 1.89767 0.115234 1.49985ZM0.115234 8.99985C0.115234 8.60202 0.271533 8.22049 0.549746 7.93919C0.827959 7.65789 1.2053 7.49985 1.59875 7.49985H19.4009C19.7944 7.49985 20.1717 7.65789 20.45 7.93919C20.7282 8.22049 20.8845 8.60202 20.8845 8.99985C20.8845 9.39767 20.7282 9.7792 20.45 10.0605C20.1717 10.3418 19.7944 10.4998 19.4009 10.4998H1.59875C1.2053 10.4998 0.827959 10.3418 0.549746 10.0605C0.271533 9.7792 0.115234 9.39767 0.115234 8.99985ZM9.01633 16.4998C9.01633 16.102 9.17263 15.7205 9.45085 15.4392C9.72906 15.1579 10.1064 14.9998 10.4998 14.9998H19.4009C19.7944 14.9998 20.1717 15.1579 20.45 15.4392C20.7282 15.7205 20.8845 16.102 20.8845 16.4998C20.8845 16.8977 20.7282 17.2792 20.45 17.5605C20.1717 17.8418 19.7944 17.9998 19.4009 17.9998H10.4998C10.1064 17.9998 9.72906 17.8418 9.45085 17.5605C9.17263 17.2792 9.01633 16.8977 9.01633 16.4998Z" fill="#333333"/>
</svg>
