<svg width="422" height="1480" viewBox="0 0 422 1480" fill="none" xmlns="http://www.w3.org/2000/svg">
<path d="M269.366 87.307C356.566 -113.493 465.366 82.6403 508.866 205.807L492.367 1399.81C448.867 1436.97 338.667 1503.21 245.866 1470.81C129.865 1430.31 186.867 1307.31 312.367 1271.81C437.866 1236.31 312.367 1103.81 245.866 982.807C179.366 861.807 312.367 783.807 312.367 755.307C312.367 726.807 217.367 854.807 75.3667 928.307C-66.6333 1001.81 32.8667 565.807 63.3663 651.307C93.8658 736.807 371.367 771.807 312.367 613.307C253.367 454.807 146.366 632.307 63.3663 504.307C-19.6337 376.307 96.8663 314.807 293.366 489.807C489.866 664.807 449.866 433.307 435.366 281.807C420.866 130.307 342.866 291.307 245.866 343.307C148.866 395.307 160.366 338.307 269.366 87.307Z" stroke="#B2B2B2"/>
</svg>
