<svg width="1926" height="918" viewBox="0 0 1926 918" fill="none" xmlns="http://www.w3.org/2000/svg">
<path d="M281.5 429.5C266.3 362.3 190.5 390.5 154.5 413C85.9998 572.5 -13.2002 868 138 774C327 656.5 298.5 867.5 367.5 652C436.5 436.5 296 704.5 229 594.5C162 484.5 300.5 513.5 281.5 429.5Z" stroke="white"/>
<path d="M1749 441.5C1736.83 334.5 1693.4 158.8 1617 312C1521.5 503.5 1600 512.5 1617 477C1634 441.5 1813 469.5 1684 541.5C1555 613.5 1423.5 548.5 1500 687.5C1576.5 826.5 1612.5 606 1670 687.5C1727.5 769 1591 764 1670 802.5C1749 841 1696 950.5 1598 888.5C1519.6 838.9 1696 810.5 1794 802.5L1749 441.5Z" stroke="white"/>
<path d="M205.5 610C143.9 505.6 96.8329 653.5 80.9996 740.5C59.6663 807.167 40.6996 927 135.5 873C254 805.5 283 969 353.5 900C424 831 311.5 843 205.5 807C99.4996 771 282.5 740.5 205.5 610Z" stroke="white"/>
<path d="M439.5 81C447 96.8333 449.5 149 399.5 231C349.5 313 253.333 335.833 211.5 337C181.5 337.5 123.2 354.2 130 417C138.5 495.5 304.5 391.5 292 527C282 635.4 160.167 683.5 100.5 694L1 100.5L450 81" stroke="#B2B2B2"/>
<path d="M1668.9 166.413C1617.82 190.53 1503.28 205.99 1453.75 74.8875L1468.42 71.4256L1793.34 94.6536C1838.72 286.898 1889.78 677.176 1730.96 700.332C1572.15 723.487 1531.54 675.964 1531.08 649.309C1521.68 609.489 1541.51 480.14 1696.02 281.303C1850.52 82.4651 1742.32 121.86 1668.9 166.413Z" stroke="#B2B2B2"/>
</svg>
